<?xml version="1.0" standalone="no"?>
<svg version="1.0" xmlns="http://www.w3.org/2000/svg"
     width="3401.000000pt" height="1134.000000pt" viewBox="0 0 3401.000000 1134.000000"
     preserveAspectRatio="xMidYMid meet">
    <g transform="translate(0.000000,1134.000000) scale(0.100000,-0.100000)"
       fill="#f8fafc" stroke="none">
        <path d="M7147 9624 c-3 -4 -39 -9 -79 -11 -121 -6 -317 -31 -418 -53 -52 -12
-135 -29 -185 -40 -93 -19 -218 -54 -315 -88 -86 -30 -253 -91 -275 -101 -11
-5 -54 -23 -95 -41 -211 -91 -510 -263 -740 -427 -197 -140 -587 -510 -720
-683 -19 -25 -55 -70 -81 -100 -56 -67 -299 -427 -299 -443 0 -2 -34 -66 -76
-143 -71 -132 -184 -381 -184 -408 0 -6 -4 -16 -8 -22 -19 -21 -130 -370 -147
-464 -4 -19 -11 -48 -16 -65 -11 -38 -46 -225 -54 -287 -3 -26 -10 -80 -16
-120 -6 -40 -13 -86 -15 -103 -11 -82 -15 -534 -5 -645 16 -205 72 -574 92
-612 5 -10 9 -26 9 -37 0 -53 139 -471 216 -651 128 -298 351 -667 548 -909
147 -180 380 -422 517 -537 85 -72 194 -159 229 -185 123 -90 373 -250 455
-291 17 -8 67 -34 113 -58 46 -23 85 -41 87 -38 2 2 6 87 8 189 5 207 23 371
62 546 7 29 61 179 80 220 8 17 15 33 15 36 0 19 148 261 197 323 18 23 33 43
33 46 0 3 -36 24 -80 47 -193 99 -295 172 -448 324 -169 166 -339 433 -394
615 -11 37 -29 96 -40 132 -43 139 -53 252 -52 630 1 407 3 441 52 615 11 39
27 97 36 130 23 81 122 282 188 379 29 44 63 95 76 113 13 19 79 91 148 159
l125 125 -1 702 c0 595 2 711 15 760 8 32 15 65 15 73 0 32 54 148 96 208 61
87 192 188 279 216 22 7 46 18 54 24 21 16 326 15 343 -1 6 -7 19 -13 28 -13
32 0 157 -69 214 -119 61 -52 155 -174 156 -201 0 -9 6 -25 14 -36 35 -50 40
-119 43 -686 l3 -558 450 0 450 0 0 508 c0 595 4 630 78 777 59 116 166 225
273 279 39 20 79 36 88 36 10 0 23 6 29 13 18 17 299 17 333 0 13 -7 43 -17
66 -23 46 -11 135 -68 205 -130 47 -41 110 -133 141 -205 40 -94 41 -110 44
-865 2 -404 3 -740 3 -747 0 -7 24 -31 54 -53 117 -88 313 -335 394 -495 44
-86 113 -264 117 -300 1 -5 4 -17 7 -25 3 -8 16 -64 29 -125 23 -106 24 -126
24 -525 l0 -415 -28 -115 c-36 -153 -31 -135 -76 -265 -86 -248 -289 -528
-509 -703 -91 -72 -262 -180 -337 -212 -23 -10 -46 -23 -49 -29 -4 -6 7 -30
24 -53 100 -140 180 -282 224 -398 15 -41 32 -82 36 -91 4 -8 15 -49 25 -90 9
-40 21 -85 26 -99 19 -56 31 -197 35 -410 3 -124 8 -226 13 -228 19 -7 335
174 509 291 189 128 352 266 557 472 135 135 238 249 316 350 112 146 271 384
344 515 91 164 208 420 265 580 34 96 66 184 71 195 19 45 68 235 74 291 4 32
11 64 15 69 4 6 17 62 28 125 19 103 30 196 49 400 8 85 8 517 0 595 -4 33
-12 114 -18 180 -7 66 -23 172 -36 235 -13 63 -33 160 -44 215 -10 55 -25 118
-33 140 -8 22 -24 72 -36 110 -12 39 -25 79 -30 90 -5 11 -24 65 -43 120 -73
210 -258 586 -353 716 -19 26 -34 49 -34 53 0 11 -155 231 -210 298 -30 37
-73 89 -95 117 -124 155 -553 549 -717 658 -26 17 -59 40 -75 51 -67 47 -203
133 -263 166 -96 55 -416 209 -485 236 -33 12 -73 28 -90 35 -112 46 -383 129
-490 149 -44 8 -110 22 -147 29 -38 8 -68 13 -68 10 0 -2 -8 1 -19 6 -17 9
-181 31 -361 47 -106 10 -545 16 -553 8z"/>
        <path d="M6471 5986 c-114 -121 -119 -670 -8 -810 19 -24 31 -29 79 -31 53 -4
59 -2 82 26 52 62 69 144 74 368 4 203 -1 261 -33 368 -8 26 -26 60 -39 75
-22 22 -33 26 -80 26 -43 -1 -59 -5 -75 -22z"/>
        <path d="M8267 5986 c-23 -24 -52 -97 -61 -150 -48 -284 -14 -609 72 -676 36
-29 112 -27 140 3 70 74 103 386 67 628 -17 109 -34 161 -67 196 -31 34 -120
33 -151 -1z"/>
        <path d="M7100 4000 c-239 -16 -342 -37 -348 -72 -6 -30 44 -50 171 -69 251
-38 668 -35 921 6 143 23 178 65 81 96 -118 39 -532 59 -825 39z"/>
        <path d="M13960 5880 l0 -2530 660 0 660 0 0 1065 0 1065 405 0 405 0 0 480 0
480 -405 0 -405 0 0 480 0 480 455 0 455 0 0 505 0 505 -1115 0 -1115 0 0
-2530z"/>
        <path d="M21990 5880 l0 -2530 589 0 589 0 32 133 c49 198 38 187 112 110 83
-87 202 -175 302 -223 321 -154 727 -106 990 119 177 151 246 308 275 631 14
147 14 2655 1 2793 -31 315 -231 539 -555 621 -214 54 -444 47 -638 -18 -128
-44 -239 -112 -348 -214 l-89 -84 0 596 0 596 -630 0 -630 0 0 -2530z m1525
940 c46 -22 72 -61 94 -140 13 -47 15 -213 19 -1180 4 -1310 1 -1370 -66
-1442 -33 -36 -82 -51 -144 -46 -98 10 -140 72 -158 233 -8 69 -10 454 -8
1260 4 1247 3 1229 54 1286 45 50 138 63 209 29z"/>
        <path d="M25310 8080 l0 -330 650 0 650 0 0 330 0 330 -650 0 -650 0 0 -330z"/>
        <path d="M27130 7725 l0 -325 -135 0 -135 0 0 -330 0 -330 135 0 135 0 0
-1207 c0 -1524 6 -1658 81 -1813 45 -93 178 -222 279 -273 155 -77 248 -87
828 -94 l472 -5 0 336 0 336 -68 0 c-94 0 -229 18 -262 35 -55 29 -54 -10 -57
1393 l-4 1292 171 0 170 0 0 330 0 330 -170 0 -170 0 0 325 0 325 -635 0 -635
0 0 -325z"/>
        <path d="M18360 7555 c-264 -53 -467 -217 -635 -511 -25 -43 -45 -75 -45 -71
0 16 40 454 45 490 l5 37 -630 0 -630 0 0 -2075 0 -2075 630 0 630 0 0 1013
c0 1003 6 1243 35 1380 47 227 234 342 593 363 l112 7 0 728 0 729 -22 -1
c-13 0 -52 -7 -88 -14z"/>
        <path d="M19880 7559 c-370 -40 -644 -159 -869 -374 -167 -160 -240 -313 -287
-600 -11 -68 -17 -196 -21 -397 l-5 -298 589 0 590 0 6 368 c3 202 11 396 17
432 18 106 51 138 149 147 48 5 68 1 105 -16 93 -45 116 -125 123 -423 6 -233
-5 -355 -37 -418 -33 -64 -183 -141 -652 -330 -150 -61 -331 -140 -403 -175
-431 -212 -485 -326 -485 -1020 0 -342 10 -470 46 -614 58 -231 146 -342 354
-446 222 -112 499 -145 723 -86 173 45 339 167 442 325 l50 77 3 -181 2 -180
617 0 616 0 -6 1368 c-3 752 -11 1450 -16 1552 -34 593 -74 722 -291 941 -193
194 -393 285 -732 334 -134 20 -504 28 -628 14z m400 -2773 c0 -669 -6 -717
-93 -757 -93 -42 -211 -11 -254 65 -33 61 -47 187 -46 421 1 363 31 471 171
614 74 74 199 180 215 181 4 0 7 -236 7 -524z"/>
        <path d="M25310 5425 l0 -2075 650 0 650 0 0 2075 0 2075 -650 0 -650 0 0
-2075z"/>
    </g>
</svg>
