<svg width="24" height="29" viewBox="0 0 24 29" fill="none" xmlns="http://www.w3.org/2000/svg">
<path d="M12 7.50061C12.6922 7.50061 13.3689 7.29534 13.9445 6.91076C14.5201 6.52617 14.9687 5.97955 15.2336 5.34C15.4985 4.70046 15.5678 3.99673 15.4328 3.3178C15.2977 2.63886 14.9644 2.01522 14.4749 1.52574C13.9854 1.03625 13.3618 0.702912 12.6828 0.567863C12.0039 0.432815 11.3002 0.502127 10.6606 0.767034C10.0211 1.03194 9.47445 1.48054 9.08987 2.05612C8.70528 2.63169 8.50001 3.30838 8.50001 4.00061C8.50001 4.92887 8.86876 5.81911 9.52514 6.47549C10.1815 7.13186 11.0718 7.50061 12 7.50061ZM12 1.50061C12.4945 1.50061 12.9778 1.64723 13.3889 1.92194C13.8001 2.19664 14.1205 2.58709 14.3097 3.0439C14.4989 3.50072 14.5484 4.00339 14.452 4.48834C14.3555 4.97329 14.1174 5.41875 13.7678 5.76838C13.4181 6.11801 12.9727 6.35611 12.4877 6.45258C12.0028 6.54904 11.5001 6.49953 11.0433 6.31031C10.5865 6.12109 10.196 5.80066 9.92134 5.38954C9.64664 4.97841 9.50001 4.49506 9.50001 4.00061C9.50001 3.33757 9.76341 2.70169 10.2322 2.23284C10.7011 1.764 11.337 1.50061 12 1.50061ZM22.9275 16.0981L17.2713 9.68561C16.9428 9.31318 16.5389 9.01491 16.0863 8.81059C15.6337 8.60628 15.1428 8.50062 14.6463 8.50061H9.35376C8.8572 8.50062 8.36631 8.60628 7.91373 8.81059C7.46114 9.01491 7.05721 9.31318 6.72876 9.68561L1.07251 16.0981C0.705233 16.4739 0.500601 16.9792 0.502857 17.5046C0.505112 18.0301 0.714074 18.5335 1.08457 18.9062C1.45506 19.2788 1.95732 19.4907 2.48276 19.4959C3.0082 19.5012 3.51461 19.2995 3.89251 18.9344L7.12501 16.3381L4.66251 25.6981C4.44827 26.1791 4.43233 26.7251 4.61814 27.2177C4.80395 27.7104 5.17653 28.1099 5.65503 28.3295C6.13353 28.5492 6.67935 28.5713 7.17405 28.3911C7.66876 28.2109 8.07244 27.8428 8.29751 27.3669L12 21.0006L15.6975 27.3756C15.9226 27.8516 16.3263 28.2196 16.821 28.3999C17.3157 28.5801 17.8615 28.558 18.34 28.3383C18.8185 28.1186 19.1911 27.7191 19.3769 27.2265C19.5627 26.7339 19.5468 26.1878 19.3325 25.7069L16.875 16.3381L20.1125 18.9344C20.4904 19.2995 20.9968 19.5012 21.5223 19.4959C22.0477 19.4907 22.55 19.2788 22.9205 18.9062C23.291 18.5335 23.4999 18.0301 23.5022 17.5046C23.5044 16.9792 23.2998 16.4739 22.9325 16.0981H22.9275ZM22.2075 18.2069C22.02 18.3943 21.7657 18.4995 21.5006 18.4995C21.2355 18.4995 20.9813 18.3943 20.7938 18.2069C20.7809 18.1938 20.7671 18.1817 20.7525 18.1706L16.3138 14.6106C16.2318 14.5445 16.1311 14.506 16.0259 14.5005C15.9207 14.495 15.8165 14.5228 15.7281 14.5801C15.6397 14.6373 15.5717 14.7209 15.5336 14.8191C15.4956 14.9173 15.4895 15.025 15.5163 15.1269L18.375 25.9931C18.3826 26.0218 18.3926 26.0499 18.405 26.0769C18.4627 26.1962 18.4961 26.3257 18.5033 26.4581C18.5105 26.5904 18.4913 26.7228 18.4469 26.8477C18.4025 26.9725 18.3336 27.0873 18.2444 27.1853C18.1553 27.2834 18.0475 27.3627 17.9274 27.4187C17.8072 27.4747 17.6772 27.5062 17.5448 27.5115C17.4124 27.5168 17.2802 27.4957 17.156 27.4495C17.0318 27.4033 16.918 27.3328 16.8213 27.2423C16.7246 27.1517 16.6468 27.0428 16.5925 26.9219C16.5863 26.9081 16.5788 26.8956 16.5713 26.8819L12.4325 19.7506C12.3886 19.6748 12.3255 19.6119 12.2496 19.5682C12.1737 19.5245 12.0876 19.5015 12 19.5015C11.9124 19.5015 11.8264 19.5245 11.7505 19.5682C11.6746 19.6119 11.6115 19.6748 11.5675 19.7506L7.42751 26.8819C7.42001 26.8956 7.41251 26.9081 7.40626 26.9219C7.35199 27.0428 7.27423 27.1517 7.17749 27.2423C7.08076 27.3328 6.96698 27.4033 6.84278 27.4495C6.71858 27.4957 6.58643 27.5168 6.45401 27.5115C6.32159 27.5062 6.19154 27.4747 6.07142 27.4187C5.95131 27.3627 5.84353 27.2834 5.75433 27.1853C5.66514 27.0873 5.59633 26.9725 5.55188 26.8477C5.50744 26.7228 5.48825 26.5904 5.49544 26.4581C5.50263 26.3257 5.53605 26.1962 5.59376 26.0769C5.60616 26.0499 5.6162 26.0218 5.62376 25.9931L8.48376 15.1256C8.51053 15.0238 8.50445 14.9161 8.46641 14.8179C8.42836 14.7197 8.36029 14.636 8.27189 14.5788C8.18349 14.5216 8.07928 14.4937 7.97413 14.4992C7.86897 14.5047 7.76822 14.5433 7.68626 14.6094L3.25001 18.1706C3.23543 18.1817 3.22164 18.1938 3.20876 18.2069C3.0197 18.3865 2.76795 18.4851 2.50719 18.4818C2.24643 18.4785 1.99729 18.3734 1.81288 18.189C1.62848 18.0046 1.52341 17.7554 1.52007 17.4947C1.51674 17.2339 1.61539 16.9822 1.79501 16.7931L1.81626 16.7706L7.47876 10.3469C7.71338 10.0809 8.00191 9.86785 8.32519 9.72195C8.64847 9.57604 8.99909 9.50059 9.35376 9.50061H14.6463C15.0009 9.50059 15.3516 9.57604 15.6748 9.72195C15.9981 9.86785 16.2866 10.0809 16.5213 10.3469L22.1863 16.7706L22.2075 16.7931C22.3949 16.9806 22.5002 17.2349 22.5002 17.5C22.5002 17.7651 22.3949 18.0193 22.2075 18.2069Z" fill="#06b6d4"/>
</svg>
