<svg width="24" height="28" viewBox="0 0 24 28" fill="none" xmlns="http://www.w3.org/2000/svg">
<path d="M14 19.5006C15.8789 19.5006 17.7157 18.9434 19.2779 17.8996C20.8402 16.8557 22.0578 15.372 22.7769 13.6361C23.4959 11.9002 23.684 9.99007 23.3175 8.14725C22.9509 6.30443 22.0461 4.61169 20.7175 3.28309C19.3889 1.95449 17.6962 1.04971 15.8534 0.683148C14.0105 0.316588 12.1004 0.50472 10.3645 1.22375C8.62861 1.94279 7.14492 3.16042 6.10104 4.72269C5.05717 6.28496 4.5 8.12169 4.5 10.0006C4.50265 12.5194 5.50439 14.9342 7.28541 16.7152C9.06643 18.4962 11.4813 19.498 14 19.5006ZM14 1.50061C15.6811 1.50061 17.3245 1.99912 18.7224 2.93312C20.1202 3.86711 21.2096 5.19463 21.853 6.7478C22.4963 8.30097 22.6647 10.01 22.3367 11.6589C22.0087 13.3077 21.1992 14.8223 20.0104 16.011C18.8217 17.1998 17.3071 18.0093 15.6583 18.3373C14.0094 18.6653 12.3004 18.4969 10.7472 17.8536C9.19402 17.2102 7.8665 16.1208 6.93251 14.723C5.99852 13.3251 5.5 11.6817 5.5 10.0006C5.50232 7.74698 6.3986 5.58632 7.99215 3.99276C9.58571 2.3992 11.7464 1.50292 14 1.50061ZM23.3613 19.0356C23.4528 19.1313 23.5026 19.2594 23.4998 19.3918C23.497 19.5242 23.4418 19.6501 23.3463 19.7419C20.9617 22.0413 17.8106 23.3771 14.5 23.4919V26.5006H18C18.1326 26.5006 18.2598 26.5533 18.3536 26.6471C18.4473 26.7408 18.5 26.868 18.5 27.0006C18.5 27.1332 18.4473 27.2604 18.3536 27.3542C18.2598 27.4479 18.1326 27.5006 18 27.5006H10C9.8674 27.5006 9.74022 27.4479 9.64645 27.3542C9.55268 27.2604 9.5 27.1332 9.5 27.0006C9.5 26.868 9.55268 26.7408 9.64645 26.6471C9.74022 26.5533 9.8674 26.5006 10 26.5006H13.5V23.4906C10.8982 23.3942 8.37972 22.5475 6.2481 21.0525C4.11647 19.5576 2.46263 17.4781 1.48584 15.0646C0.509047 12.6512 0.250988 10.0068 0.742753 7.45001C1.23452 4.89326 2.45513 2.53325 4.2575 0.654358C4.30268 0.605813 4.35707 0.56674 4.41749 0.539415C4.47792 0.512089 4.54317 0.497057 4.60946 0.495193C4.67575 0.493329 4.74175 0.50467 4.80362 0.528556C4.86548 0.552443 4.92197 0.588397 4.96981 0.634326C5.01765 0.680256 5.05587 0.735242 5.08225 0.796084C5.10863 0.856926 5.12265 0.922409 5.12348 0.988719C5.12431 1.05503 5.11194 1.12084 5.0871 1.18233C5.06225 1.24381 5.02542 1.29974 4.97875 1.34686C2.7093 3.70584 1.45576 6.86094 1.48747 10.1342C1.51919 13.4075 2.83363 16.5377 5.14836 18.8522C7.4631 21.1668 10.5934 22.481 13.8667 22.5125C17.1399 22.544 20.2949 21.2902 22.6538 19.0206C22.7012 18.9751 22.7571 18.9394 22.8183 18.9155C22.8796 18.8916 22.9449 18.88 23.0106 18.8814C23.0763 18.8828 23.1411 18.8971 23.2013 18.9236C23.2615 18.9501 23.3158 18.9881 23.3613 19.0356Z" fill="#06b6d4"/>
</svg>
