<svg width="26" height="26" viewBox="0 0 26 26" fill="none" xmlns="http://www.w3.org/2000/svg">
<path d="M0.700002 12.4006C0.752531 12.44 0.812305 12.4687 0.875912 12.485C0.939518 12.5013 1.00571 12.5049 1.07071 12.4956C1.13571 12.4863 1.19825 12.4643 1.25475 12.4308C1.31125 12.3974 1.36061 12.3531 1.4 12.3006C2.05203 11.4312 2.89752 10.7256 3.86951 10.2396C4.8415 9.75362 5.91329 9.5006 7 9.5006C8.08672 9.5006 9.15851 9.75362 10.1305 10.2396C11.1025 10.7256 11.948 11.4312 12.6 12.3006C12.6455 12.3638 12.7054 12.4153 12.7747 12.4509C12.8441 12.4864 12.9208 12.5049 12.9988 12.5049C13.0767 12.5049 13.1534 12.4864 13.2228 12.4509C13.2921 12.4153 13.352 12.3638 13.3975 12.3006C14.0495 11.4312 14.895 10.7256 15.867 10.2396C16.839 9.75362 17.9108 9.5006 18.9975 9.5006C20.0842 9.5006 21.156 9.75362 22.128 10.2396C23.1 10.7256 23.9455 11.4312 24.5975 12.3006C24.6369 12.3531 24.6863 12.3974 24.7428 12.4308C24.7993 12.4643 24.8618 12.4863 24.9268 12.4956C24.9918 12.5049 25.058 12.5013 25.1216 12.485C25.1852 12.4687 25.245 12.44 25.2975 12.4006C25.35 12.3612 25.3943 12.3118 25.4277 12.2554C25.4612 12.1989 25.4832 12.1363 25.4925 12.0713C25.5018 12.0063 25.4982 11.9401 25.4819 11.8765C25.4656 11.8129 25.4369 11.7531 25.3975 11.7006C24.3834 10.3388 22.9596 9.33781 21.335 8.84435C22.174 8.33431 22.8232 7.56384 23.1836 6.65044C23.5439 5.73705 23.5956 4.73086 23.3307 3.78535C23.0659 2.83984 22.4991 2.0069 21.7167 1.41357C20.9344 0.820241 19.9794 0.499084 18.9975 0.499084C18.0156 0.499084 17.0606 0.820241 16.2783 1.41357C15.4959 2.0069 14.9291 2.83984 14.6643 3.78535C14.3994 4.73086 14.4511 5.73705 14.8115 6.65044C15.1718 7.56384 15.821 8.33431 16.66 8.84435C15.2409 9.2775 13.9719 10.1004 12.9975 11.2194C12.0233 10.1001 10.7543 9.27719 9.335 8.84435C10.174 8.33431 10.8232 7.56384 11.1836 6.65044C11.5439 5.73705 11.5956 4.73086 11.3307 3.78535C11.0659 2.83984 10.4991 2.0069 9.71671 1.41357C8.93435 0.820241 7.9794 0.499084 6.9975 0.499084C6.0156 0.499084 5.06065 0.820241 4.27829 1.41357C3.49593 2.0069 2.92911 2.83984 2.66428 3.78535C2.39944 4.73086 2.45113 5.73705 2.81145 6.65044C3.17178 7.56384 3.82097 8.33431 4.66 8.84435C3.03653 9.33877 1.61384 10.3396 0.600002 11.7006C0.560605 11.7531 0.531941 11.8129 0.515645 11.8765C0.499349 11.9401 0.495741 12.0063 0.505027 12.0713C0.514313 12.1363 0.536311 12.1989 0.569765 12.2554C0.603219 12.3118 0.647473 12.3612 0.700002 12.4006ZM15.5 5.0006C15.5 4.30837 15.7053 3.63168 16.0899 3.05611C16.4744 2.48054 17.0211 2.03193 17.6606 1.76703C18.3002 1.50212 19.0039 1.43281 19.6828 1.56786C20.3618 1.7029 20.9854 2.03625 21.4749 2.52573C21.9644 3.01521 22.2977 3.63885 22.4328 4.31779C22.5678 4.99672 22.4985 5.70045 22.2336 6.34C21.9687 6.97954 21.5201 7.52616 20.9445 7.91075C20.3689 8.29533 19.6922 8.5006 19 8.5006C18.0717 8.5006 17.1815 8.13185 16.5251 7.47548C15.8687 6.8191 15.5 5.92886 15.5 5.0006ZM3.5 5.0006C3.5 4.30837 3.70527 3.63168 4.08986 3.05611C4.47444 2.48054 5.02107 2.03193 5.66061 1.76703C6.30015 1.50212 7.00389 1.43281 7.68282 1.56786C8.36175 1.7029 8.98539 2.03625 9.47488 2.52573C9.96436 3.01521 10.2977 3.63885 10.4328 4.31779C10.5678 4.99672 10.4985 5.70045 10.2336 6.34C9.96867 6.97954 9.52007 7.52616 8.9445 7.91075C8.36893 8.29533 7.69224 8.5006 7 8.5006C6.07174 8.5006 5.18151 8.13185 4.52513 7.47548C3.86875 6.8191 3.5 5.92886 3.5 5.0006ZM21.3375 21.8444C22.1765 21.3343 22.8257 20.5638 23.1861 19.6504C23.5464 18.737 23.5981 17.7309 23.3332 16.7854C23.0684 15.8398 22.5016 15.0069 21.7192 14.4136C20.9369 13.8202 19.9819 13.4991 19 13.4991C18.0181 13.4991 17.0632 13.8202 16.2808 14.4136C15.4984 15.0069 14.9316 15.8398 14.6668 16.7854C14.4019 17.7309 14.4536 18.737 14.814 19.6504C15.1743 20.5638 15.8235 21.3343 16.6625 21.8444C15.2441 22.2758 13.9752 23.0964 13 24.2131C12.025 23.0962 10.756 22.2755 9.3375 21.8444C10.1765 21.3343 10.8257 20.5638 11.1861 19.6504C11.5464 18.737 11.5981 17.7309 11.3332 16.7854C11.0684 15.8398 10.5016 15.0069 9.71921 14.4136C8.93685 13.8202 7.9819 13.4991 7 13.4991C6.0181 13.4991 5.06315 13.8202 4.28079 14.4136C3.49843 15.0069 2.93161 15.8398 2.66678 16.7854C2.40194 17.7309 2.45363 18.737 2.81395 19.6504C3.17428 20.5638 3.82347 21.3343 4.6625 21.8444C3.03812 22.3383 1.61449 23.3392 0.600002 24.7006C0.520437 24.8067 0.486274 24.94 0.505027 25.0713C0.523781 25.2026 0.593916 25.321 0.700002 25.4006C0.806089 25.4802 0.939437 25.5143 1.07071 25.4956C1.20199 25.4768 1.32044 25.4067 1.4 25.3006C2.05203 24.4312 2.89752 23.7256 3.86951 23.2396C4.8415 22.7536 5.91329 22.5006 7 22.5006C8.08672 22.5006 9.15851 22.7536 10.1305 23.2396C11.1025 23.7256 11.948 24.4312 12.6 25.3006C12.6455 25.3638 12.7054 25.4153 12.7747 25.4509C12.8441 25.4864 12.9208 25.5049 12.9988 25.5049C13.0767 25.5049 13.1534 25.4864 13.2228 25.4509C13.2921 25.4153 13.352 25.3638 13.3975 25.3006C14.0495 24.4312 14.895 23.7256 15.867 23.2396C16.839 22.7536 17.9108 22.5006 18.9975 22.5006C20.0842 22.5006 21.156 22.7536 22.128 23.2396C23.1 23.7256 23.9455 24.4312 24.5975 25.3006C24.6771 25.4067 24.7955 25.4768 24.9268 25.4956C25.0581 25.5143 25.1914 25.4802 25.2975 25.4006C25.4036 25.321 25.4737 25.2026 25.4925 25.0713C25.5112 24.94 25.4771 24.8067 25.3975 24.7006C24.384 23.3393 22.9612 22.3383 21.3375 21.8444ZM3.5 18.0006C3.5 17.3084 3.70527 16.6317 4.08986 16.0561C4.47444 15.4805 5.02107 15.0319 5.66061 14.767C6.30015 14.5021 7.00389 14.4328 7.68282 14.5679C8.36175 14.7029 8.98539 15.0362 9.47488 15.5257C9.96436 16.0152 10.2977 16.6389 10.4328 17.3178C10.5678 17.9967 10.4985 18.7005 10.2336 19.34C9.96867 19.9795 9.52007 20.5262 8.9445 20.9107C8.36893 21.2953 7.69224 21.5006 7 21.5006C6.07174 21.5006 5.18151 21.1319 4.52513 20.4755C3.86875 19.8191 3.5 18.9289 3.5 18.0006ZM15.5 18.0006C15.5 17.3084 15.7053 16.6317 16.0899 16.0561C16.4744 15.4805 17.0211 15.0319 17.6606 14.767C18.3002 14.5021 19.0039 14.4328 19.6828 14.5679C20.3618 14.7029 20.9854 15.0362 21.4749 15.5257C21.9644 16.0152 22.2977 16.6389 22.4328 17.3178C22.5678 17.9967 22.4985 18.7005 22.2336 19.34C21.9687 19.9795 21.5201 20.5262 20.9445 20.9107C20.3689 21.2953 19.6922 21.5006 19 21.5006C18.0717 21.5006 17.1815 21.1319 16.5251 20.4755C15.8687 19.8191 15.5 18.9289 15.5 18.0006Z" fill="#06b6d4"/>
</svg>
