<svg width="30" height="23" viewBox="0 0 30 23" fill="none" xmlns="http://www.w3.org/2000/svg">
<path d="M28.4875 14.0306C28.175 13.79 27.8111 13.625 27.4242 13.5485C27.0374 13.4719 26.6381 13.4859 26.2575 13.5894L24.7638 13.9331C27.9075 11.2356 29.5 8.57312 29.5 6.00062C29.5 2.96812 27.0625 0.500616 24.0675 0.500616C23.1641 0.493394 22.2731 0.711868 21.4755 1.13621C20.6779 1.56056 19.9988 2.17735 19.5 2.93062C19.0012 2.17735 18.3221 1.56056 17.5245 1.13621C16.7269 0.711868 15.8359 0.493394 14.9325 0.500616C11.9375 0.500616 9.5 2.96812 9.5 6.00062C9.5 7.48187 10.0138 8.93062 11.1012 10.5006C10.2221 10.5333 9.3881 10.8983 8.7675 11.5219L5.7925 14.5006H2C1.60218 14.5006 1.22064 14.6587 0.93934 14.94C0.658035 15.2213 0.5 15.6028 0.5 16.0006V21.0006C0.5 21.3984 0.658035 21.78 0.93934 22.0613C1.22064 22.3426 1.60218 22.5006 2 22.5006H15C15.0421 22.5009 15.0841 22.4959 15.125 22.4856L23.125 20.4856C23.1505 20.479 23.1756 20.4706 23.2 20.4606L28.0525 18.3931L28.08 18.3806C28.471 18.1852 28.8058 17.8935 29.0528 17.5329C29.2999 17.1724 29.4511 16.7548 29.4923 16.3197C29.5334 15.8845 29.4631 15.4461 29.288 15.0456C29.1128 14.6451 28.8387 14.2958 28.4912 14.0306H28.4875ZM14.9325 1.50062C15.8067 1.48969 16.6643 1.73984 17.3956 2.21903C18.1269 2.69823 18.6985 3.3847 19.0375 4.19062C19.0752 4.28232 19.1393 4.36076 19.2216 4.41596C19.304 4.47116 19.4009 4.50063 19.5 4.50063C19.5991 4.50063 19.696 4.47116 19.7784 4.41596C19.8607 4.36076 19.9248 4.28232 19.9625 4.19062C20.3015 3.3847 20.8731 2.69823 21.6044 2.21903C22.3357 1.73984 23.1933 1.48969 24.0675 1.50062C26.47 1.50062 28.5 3.56187 28.5 6.00062C28.5 8.65937 26.4837 11.5006 22.5075 14.4519L20.0938 15.0006C20.3599 14.5455 20.5001 14.0278 20.5 13.5006C20.5 12.705 20.1839 11.9419 19.6213 11.3793C19.0587 10.8167 18.2956 10.5006 17.5 10.5006H12.3363C11.0863 8.87562 10.5 7.43812 10.5 6.00062C10.5 3.56187 12.53 1.50062 14.9325 1.50062ZM1.5 21.0006V16.0006C1.5 15.868 1.55268 15.7408 1.64645 15.6471C1.74021 15.5533 1.86739 15.5006 2 15.5006H5.5V21.5006H2C1.86739 21.5006 1.74021 21.4479 1.64645 21.3542C1.55268 21.2604 1.5 21.1332 1.5 21.0006ZM27.6413 17.4794L22.84 19.5256L14.9388 21.5006H6.5V15.2081L9.475 12.2331C9.70652 12.0002 9.98195 11.8155 10.2853 11.6897C10.5887 11.564 10.9141 11.4997 11.2425 11.5006H17.5C18.0304 11.5006 18.5391 11.7113 18.9142 12.0864C19.2893 12.4615 19.5 12.9702 19.5 13.5006C19.5 14.031 19.2893 14.5398 18.9142 14.9148C18.5391 15.2899 18.0304 15.5006 17.5 15.5006H14C13.8674 15.5006 13.7402 15.5533 13.6464 15.6471C13.5527 15.7408 13.5 15.868 13.5 16.0006C13.5 16.1332 13.5527 16.2604 13.6464 16.3542C13.7402 16.4479 13.8674 16.5006 14 16.5006H18C18.0379 16.5008 18.0756 16.4966 18.1125 16.4881L26.4875 14.5619H26.5075C26.8828 14.4624 27.2816 14.505 27.6274 14.6815C27.9732 14.8581 28.2415 15.1561 28.381 15.5184C28.5205 15.8808 28.5212 16.2819 28.3831 16.6447C28.2449 17.0075 27.9776 17.3066 27.6325 17.4844L27.6413 17.4794Z" fill="#06b6d4"/>
</svg>
