<svg width="28" height="21" viewBox="0 0 28 21" fill="none" xmlns="http://www.w3.org/2000/svg">
<path d="M27 15.5006H25.5V3.00061C25.5 2.33757 25.2366 1.70168 24.7678 1.23284C24.2989 0.764002 23.663 0.50061 23 0.50061H5C4.33696 0.50061 3.70107 0.764002 3.23223 1.23284C2.76339 1.70168 2.5 2.33757 2.5 3.00061V15.5006H1C0.867392 15.5006 0.740215 15.5533 0.646447 15.6471C0.552679 15.7408 0.5 15.868 0.5 16.0006V18.0006C0.5 18.6637 0.763392 19.2995 1.23223 19.7684C1.70107 20.2372 2.33696 20.5006 3 20.5006H25C25.663 20.5006 26.2989 20.2372 26.7678 19.7684C27.2366 19.2995 27.5 18.6637 27.5 18.0006V16.0006C27.5 15.868 27.4473 15.7408 27.3536 15.6471C27.2598 15.5533 27.1326 15.5006 27 15.5006ZM3.5 3.00061C3.5 2.60279 3.65804 2.22125 3.93934 1.93995C4.22064 1.65865 4.60218 1.50061 5 1.50061H23C23.3978 1.50061 23.7794 1.65865 24.0607 1.93995C24.342 2.22125 24.5 2.60279 24.5 3.00061V15.5006H3.5V3.00061ZM26.5 18.0006C26.5 18.3984 26.342 18.78 26.0607 19.0613C25.7794 19.3426 25.3978 19.5006 25 19.5006H3C2.60218 19.5006 2.22064 19.3426 1.93934 19.0613C1.65804 18.78 1.5 18.3984 1.5 18.0006V16.5006H26.5V18.0006ZM16.5 5.00061C16.5 5.13322 16.4473 5.2604 16.3536 5.35416C16.2598 5.44793 16.1326 5.50061 16 5.50061H12C11.8674 5.50061 11.7402 5.44793 11.6464 5.35416C11.5527 5.2604 11.5 5.13322 11.5 5.00061C11.5 4.868 11.5527 4.74082 11.6464 4.64706C11.7402 4.55329 11.8674 4.50061 12 4.50061H16C16.1326 4.50061 16.2598 4.55329 16.3536 4.64706C16.4473 4.74082 16.5 4.868 16.5 5.00061Z" fill="#06b6d4"/>
</svg>
