<svg width="24" height="25" viewBox="0 0 24 25" fill="none" xmlns="http://www.w3.org/2000/svg">
<path d="M22 0.50061H2C1.60218 0.50061 1.22064 0.658645 0.93934 0.93995C0.658035 1.22125 0.5 1.60279 0.5 2.00061V9.34686C0.5 20.2056 9.6925 23.8094 11.535 24.4219C11.8367 24.5235 12.1633 24.5235 12.465 24.4219C14.3075 23.8094 23.5 20.2056 23.5 9.34686V2.00061C23.5 1.60279 23.342 1.22125 23.0607 0.93995C22.7794 0.658645 22.3978 0.50061 22 0.50061ZM22.5 9.34936C22.5 19.5219 13.875 22.9006 12.15 23.4744C12.0531 23.5094 11.9469 23.5094 11.85 23.4744C10.125 22.9006 1.5 19.5219 1.5 9.34936V2.00061C1.5 1.868 1.55268 1.74083 1.64645 1.64706C1.74021 1.55329 1.86739 1.50061 2 1.50061H22C22.1326 1.50061 22.2598 1.55329 22.3536 1.64706C22.4473 1.74083 22.5 1.868 22.5 2.00061V9.34936ZM17.3538 7.64686C17.4002 7.6933 17.4371 7.74844 17.4623 7.80914C17.4874 7.86984 17.5004 7.9349 17.5004 8.00061C17.5004 8.06632 17.4874 8.13138 17.4623 8.19208C17.4371 8.25278 17.4002 8.30792 17.3538 8.35436L10.3538 15.3544C10.3073 15.4008 10.2522 15.4377 10.1915 15.4629C10.1308 15.4881 10.0657 15.501 10 15.501C9.93429 15.501 9.86923 15.4881 9.80853 15.4629C9.74783 15.4377 9.69269 15.4008 9.64625 15.3544L6.64625 12.3544C6.55243 12.2605 6.49972 12.1333 6.49972 12.0006C6.49972 11.8679 6.55243 11.7407 6.64625 11.6469C6.74007 11.553 6.86732 11.5003 7 11.5003C7.13268 11.5003 7.25993 11.553 7.35375 11.6469L10 14.2931L16.6462 7.64686C16.6927 7.60037 16.7478 7.56349 16.8085 7.53833C16.8692 7.51317 16.9343 7.50022 17 7.50022C17.0657 7.50022 17.1308 7.51317 17.1915 7.53833C17.2522 7.56349 17.3073 7.60037 17.3538 7.64686Z" fill="#06b6d4"/>
</svg>
